<?xml version="1.0" encoding="utf-8" ?>
<svg xmlns="http://www.w3.org/2000/svg" xmlns:xlink="http://www.w3.org/1999/xlink" width="1024" height="1024">
	<path fill="#4D2161" d="M827.637 933.165C807.964 943.264 787.239 948.163 765.167 948.869C743.342 949.567 721.303 948.937 699.461 948.948C651.368 948.974 608.527 952.162 570.613 916.102C538.697 885.747 536.286 854.139 535.564 812.86Q535.161 788.315 535.126 763.767C535.115 754.031 535.494 744.13 534.971 734.412C534.687 729.128 531.918 723.921 530.725 718.756C527.99 706.916 526.424 693.949 526.187 681.82C525.42 642.408 526.129 602.861 526.047 563.433L525.554 336.187L525.55 233.2C525.548 213.108 524.031 191.035 527.234 171.22C530.43 151.45 538.545 133.997 552.575 119.575C573.243 98.3293 603.279 89.3305 632.364 88.9904C677.616 88.4614 721.932 106.393 755.955 135.965C761.097 140.434 766.08 145.277 770.739 150.25C774.197 153.941 777.586 158.83 781.682 161.771C786.07 164.921 792.298 166.672 797.166 169.243C810.112 176.081 822.158 185.28 832.575 195.57Q834.829 197.79 836.993 200.098Q839.157 202.406 841.227 204.798Q843.297 207.191 845.27 209.665Q847.242 212.138 849.115 214.688Q850.987 217.239 852.755 219.862Q854.524 222.485 856.187 225.177Q857.849 227.869 859.403 230.625Q860.956 233.381 862.399 236.197Q863.841 239.013 865.169 241.884Q866.498 244.755 867.71 247.677Q868.923 250.6 870.018 253.568Q871.113 256.536 872.088 259.546Q873.063 262.556 873.918 265.602Q874.772 268.648 875.504 271.726Q876.236 274.804 876.844 277.909Q877.452 281.013 877.936 284.14C879.599 295.188 879.904 306.137 879.921 317.289C883.815 322.047 888.174 326.299 891.868 331.255C909.251 354.578 919.549 382.157 923.11 410.946Q923.325 412.805 923.495 414.668Q923.664 416.531 923.789 418.398Q923.913 420.265 923.992 422.134Q924.072 424.004 924.105 425.875Q924.139 427.745 924.127 429.616Q924.115 431.487 924.058 433.357Q924.001 435.227 923.898 437.096Q923.796 438.964 923.648 440.829Q923.5 442.694 923.306 444.555Q923.113 446.416 922.875 448.272Q922.636 450.128 922.353 451.977Q922.07 453.827 921.741 455.669Q921.413 457.511 921.04 459.344Q920.667 461.178 920.25 463.002Q919.833 464.825 919.371 466.639Q918.91 468.452 918.405 470.253Q917.899 472.055 917.35 473.844Q916.801 475.632 916.209 477.407Q915.617 479.182 914.982 480.942Q914.347 482.702 913.669 484.446Q912.991 486.19 912.271 487.917Q911.551 489.644 910.79 491.353Q910.028 493.062 909.225 494.752Q908.422 496.442 907.579 498.112Q906.735 499.782 905.851 501.431Q904.967 503.08 904.043 504.707Q903.119 506.334 902.156 507.938Q901.193 509.542 900.192 511.122Q899.19 512.703 898.15 514.258Q897.11 515.813 896.033 517.343Q894.956 518.873 893.841 520.376Q892.727 521.879 891.577 523.355C894.699 538.418 893.681 556.133 891.473 571.284Q891.176 573.237 890.831 575.182Q890.486 577.126 890.094 579.062Q889.703 580.998 889.264 582.924Q888.825 584.85 888.339 586.764Q887.854 588.679 887.322 590.581Q886.79 592.483 886.212 594.372Q885.633 596.261 885.01 598.135Q884.386 600.009 883.716 601.867Q883.047 603.725 882.333 605.567Q881.619 607.408 880.86 609.232Q880.101 611.056 879.298 612.86Q878.495 614.665 877.649 616.449Q876.802 618.234 875.912 619.997Q875.023 621.761 874.09 623.502Q873.158 625.243 872.183 626.961Q871.209 628.679 870.193 630.373Q869.177 632.067 868.12 633.736Q867.064 635.404 865.967 637.047Q864.87 638.689 863.733 640.305Q862.596 641.92 861.42 643.507Q860.245 645.094 859.031 646.652Q857.817 648.211 856.565 649.739Q855.314 651.267 854.026 652.764Q852.738 654.261 851.413 655.727Q850.089 657.192 848.73 658.625Q847.37 660.058 845.976 661.457Q844.582 662.857 843.155 664.222Q841.727 665.587 840.267 666.917Q838.807 668.247 837.314 669.541Q835.822 670.835 834.299 672.092Q832.775 673.349 831.222 674.569Q829.669 675.789 828.086 676.971C818.276 712.676 796.534 741.3 765.905 761.843C721.339 791.734 664.77 797.668 612.994 787.6Q612.882 792.511 612.914 797.423C613.115 814.375 616.606 830.922 629.224 843.1C635.532 849.188 643.725 853.095 652.236 854.976C665.325 857.87 680.626 856.475 694.009 856.458C710.775 856.436 727.57 856.69 744.332 856.361C750.35 856.242 756.357 856.076 762.291 854.972C790.409 849.743 812.084 830.09 830.095 809.128C835.745 802.552 840.772 795.113 846.793 788.926C846.934 788.781 847.078 788.639 847.22 788.495C851.057 796.889 855.506 801.679 862.808 807.248C858.8 813.227 853.909 818.703 849.226 824.16C828.141 848.734 801.576 871.994 768.929 878.518C749.044 882.492 720.245 880.841 699.366 880.801C683.151 880.77 665.641 882.126 649.653 879.326C639.536 877.554 629.882 873.901 621.368 868.125C604.588 856.74 593.971 839.481 590.316 819.682C588.003 807.15 588.283 793.466 589.159 780.786C578.32 776.525 568.994 770.709 559.96 763.373L559.884 808.167C559.839 841.655 559.8 870.249 585.137 895.858C612.036 923.045 640.915 924.453 676.629 924.477L734.682 924.483C752.69 924.516 771.098 925.505 788.815 921.705C795.904 920.185 802.554 917.658 809.177 914.766C812.154 913.466 815.461 911.541 818.558 910.723C819.59 919.703 822.086 925.992 827.637 933.165Z"/>
	<path fill="#6F387A" d="M620.621 114.202C629.132 113.115 639.486 113.627 648.001 114.416C684.456 117.797 722.041 136.758 747.652 162.861C753.903 169.232 758.513 176.387 764.149 183.168L764.507 183.592C785.641 189.907 803.79 200.796 818.987 216.9C848.245 247.902 856.51 286.656 855.212 327.904C877.871 350.488 891.514 372.337 896.902 404.486C902.301 436.695 896.601 469.176 879.491 497.095C874.988 504.442 869.561 511.007 864.581 518.006C868.971 530.171 869.269 544.942 868.242 557.752Q868.117 559.341 867.956 560.926Q867.795 562.511 867.598 564.093Q867.4 565.674 867.166 567.25Q866.932 568.826 866.662 570.397Q866.392 571.967 866.086 573.531Q865.78 575.095 865.438 576.651Q865.096 578.208 864.718 579.756Q864.34 581.304 863.927 582.843Q863.514 584.382 863.065 585.911Q862.616 587.44 862.133 588.958Q861.649 590.477 861.131 591.984Q860.612 593.491 860.06 594.985Q859.507 596.48 858.919 597.961Q858.332 599.442 857.711 600.91Q857.09 602.377 856.435 603.83Q855.78 605.283 855.093 606.72Q854.405 608.158 853.684 609.579Q852.963 611 852.209 612.404Q851.456 613.809 850.671 615.195Q849.885 616.582 849.068 617.95Q848.251 619.318 847.403 620.667Q846.554 622.015 845.675 623.344Q844.796 624.673 843.886 625.982Q842.977 627.29 842.037 628.578Q841.098 629.865 840.129 631.13Q839.16 632.395 838.163 633.638Q837.165 634.88 836.139 636.1Q835.113 637.319 834.059 638.514Q833.006 639.71 831.925 640.881Q830.844 642.051 829.736 643.197Q828.628 644.343 827.495 645.463Q826.361 646.583 825.202 647.676C818.619 653.932 811.238 658.866 804.344 664.698C801.557 687.828 792.522 704.835 776.511 721.78C747.342 752.653 708.375 766.939 666.486 768.038Q669.525 765.89 672.446 763.585C698.767 742.443 712.802 710.896 716.404 677.844C717.335 669.305 719.284 657.524 713.311 650.486C711.612 648.483 709.335 647.065 706.663 646.968C703.349 646.848 699.642 648.204 697.222 650.481C691.099 656.244 694.468 665.834 693.99 673.26C692.327 699.108 680.044 726.942 660.353 744.115L659.779 744.611C651.108 752.756 635.69 764.183 623.283 764.267C604.985 764.391 584.753 753.797 572.014 741.173C562.036 731.284 555.472 719.602 552.57 705.838C550.217 694.676 550.935 682.89 550.942 671.539L550.962 631.168L550.675 490.238C574.6 517.613 607.16 535.099 644.206 533.821C658.613 533.325 672.501 530.312 687.016 531.342C715.344 533.351 733.606 544.178 751.725 565.433C754.693 568.916 756.252 573.456 759.336 576.808C761.614 579.285 765.156 580.484 768.472 580.514C771.486 580.542 774.286 579.398 776.344 577.18Q776.779 576.717 777.162 576.212Q777.546 575.706 777.875 575.163Q778.203 574.62 778.473 574.045Q778.743 573.471 778.951 572.871Q779.159 572.271 779.304 571.653Q779.448 571.035 779.526 570.405Q779.605 569.775 779.617 569.14Q779.629 568.505 779.574 567.873C778.913 559.964 768.302 547.679 762.974 541.959C743.033 520.548 711.99 506.96 682.672 507.068C673.609 507.102 664.56 508.556 655.534 509.251C628.358 511.343 604.815 507.251 583.089 489.733C566.158 476.081 553.299 456.16 550.982 434.262C549.091 416.385 550.022 397.673 550.009 379.686L549.974 287.824L549.923 217.356C549.914 203.194 548.873 188.182 551.029 174.187Q551.365 171.929 551.853 169.699Q552.341 167.469 552.979 165.277Q553.617 163.086 554.401 160.942Q555.186 158.798 556.113 156.712Q557.041 154.627 558.107 152.608Q559.174 150.59 560.374 148.649Q561.575 146.707 562.904 144.851Q564.233 142.995 565.684 141.233C579.495 124.403 599.367 116.388 620.621 114.202Z"/>
	<path fill="#FEF7E2" d="M634.324 250.225C651.327 249.719 668.444 250.879 685.462 251.012C699.444 251.121 713.397 251.553 727.374 251.832C735.017 251.985 742.975 251.62 750.577 252.384C753.713 252.7 756.999 253.422 759.793 254.905C761.312 256.801 762.039 258.7 762.712 261.026C764.786 268.197 769.217 294.748 768.94 301.859C768.394 302.721 767.842 303.606 767.191 304.392C765.741 306.14 763.178 308.091 760.793 308.053C753.513 307.939 750.699 294.937 748.071 289.735C746.225 286.082 743.929 282.588 741.022 279.688C736.39 275.066 729.643 272.838 723.344 271.533C714.081 269.613 704.324 269.923 694.902 269.669Q672.838 268.947 650.763 269.008C657.635 279.935 700.509 334.784 701.718 339.171C702.194 340.896 701.652 342.618 700.736 344.085C696.116 351.482 687.586 360.717 681.907 367.888C669.11 384.049 656.786 400.143 645.471 417.389C664.16 418.767 689.179 418.257 707.938 416.642C724.867 416.338 748.629 415.346 759.5 400.402C762.409 396.403 763.865 390.06 767.805 387.018C769.411 385.777 771.352 385.015 773.383 385.248C774.55 385.831 775.026 386.249 775.569 387.462C776.498 389.54 776.573 392.116 776.373 394.344C775.732 401.481 772.925 408.865 771.245 415.836C769.633 422.529 768.915 429.957 766.368 436.359C765.524 438.481 764.674 439.353 762.556 440.17C751.341 444.502 640.637 443.678 622.53 441.87C619.555 441.573 616.402 441.128 613.69 439.81C612.048 439.013 610.644 437.877 610.105 436.079C609.409 433.761 612.025 430.106 613.387 428.189C617.355 422.604 622.149 417.375 626.615 412.168C642.106 394.104 662.749 373.003 673.801 351.919C666.77 335.927 610.226 265.832 609.844 258.805C609.756 257.181 610.202 255.59 611.299 254.369C615.619 249.56 628.324 250.466 634.324 250.225Z"/>
	<path fill="#4D2161" d="M242.821 162.201C248.222 155.915 253.171 149.539 259.103 143.693C293.592 109.704 342.905 88.6027 391.495 89.1257C420.993 89.4432 451.183 97.8217 472.195 119.534C490.315 138.258 497.462 163.381 497.06 188.986C497.772 196.364 497.47 204.004 497.476 211.42L497.47 247.333L497.497 326.652C497.479 333.412 497.722 340.282 497.389 347.028C497.79 375.51 497.234 404.05 497.063 432.536L496.975 534.25L496.957 635.168C496.959 656.587 498.174 678.587 495.339 699.833C493.783 711.495 490.48 722.01 487.411 733.259C487.991 750.942 487.534 768.754 487.482 786.449C487.361 827.896 488.973 864.47 458.411 897.048C434.37 922.674 403.825 934.478 369.125 935.472C343.018 936.219 316.757 935.6 290.63 935.638C269.695 935.669 243.882 937.188 223.769 933.926C208.324 931.421 192.783 926.137 179.509 917.808Q180.174 917.382 180.818 916.924Q181.462 916.467 182.083 915.979Q182.704 915.492 183.302 914.975Q183.899 914.458 184.471 913.913Q185.043 913.369 185.588 912.797Q186.133 912.226 186.65 911.629Q187.168 911.032 187.656 910.411Q188.144 909.791 188.602 909.147Q189.06 908.504 189.487 907.839Q189.914 907.174 190.308 906.49Q190.703 905.806 191.064 905.104Q191.425 904.401 191.753 903.683Q192.08 902.964 192.373 902.23Q192.666 901.497 192.923 900.75Q193.18 900.003 193.402 899.245Q193.623 898.487 193.808 897.719Q196.96 899.446 200.218 900.964Q203.475 902.483 206.825 903.787Q210.174 905.091 213.601 906.174Q217.028 907.257 220.518 908.116C236.763 912.093 253.714 911.188 270.306 911.197L317.876 911.166L354.528 911.199C364.477 911.199 374.498 911.46 384.37 910.036C396.987 908.217 408.877 904.126 419.766 897.483C441.114 884.458 454.338 865.777 460.142 841.668C463.294 821.466 461.671 794.419 461.63 773.613C461.687 769.73 461.621 765.795 461.978 761.928Q458.594 764.781 454.999 767.363Q451.405 769.946 447.622 772.245Q443.839 774.543 439.89 776.542Q435.941 778.542 431.85 780.231C432.298 801.901 431.867 823.012 415.803 839.646C402.859 853.049 385.095 858.785 366.757 858.997C344.826 859.249 322.863 859.015 300.929 859.02C284.952 859.023 268.527 859.935 252.684 857.729C241.951 856.235 229.393 852.962 220.087 847.272C217.098 846.195 214.055 844.206 211.338 842.57C189.674 829.524 173.006 809.577 156.083 791.136C149.62 784.093 142.318 776.977 136.717 769.248Q137.439 768.906 138.143 768.53Q138.848 768.154 139.534 767.745Q140.22 767.336 140.885 766.894Q141.551 766.453 142.195 765.98Q142.838 765.508 143.459 765.005Q144.079 764.502 144.675 763.97Q145.271 763.438 145.841 762.879Q146.41 762.319 146.953 761.733Q147.495 761.147 148.009 760.535Q148.523 759.924 149.007 759.288Q149.491 758.653 149.944 757.996Q150.397 757.338 150.819 756.659Q151.24 755.981 151.629 755.283Q152.017 754.586 152.372 753.87Q152.727 753.154 153.047 752.423Q153.367 751.691 153.652 750.945C156.814 755.832 161.661 760.415 165.588 764.743C171.438 771.19 177.152 777.749 183.059 784.146C205.267 808.199 230.329 833.567 265.365 834.805C287.532 835.589 309.896 834.893 332.087 834.942C343.085 834.967 366.094 836.15 376.023 834.237C383.543 832.788 391.145 829.267 396.673 823.893C406.792 814.056 407.868 800.222 408.086 786.919C407.393 787.137 406.707 787.344 406.005 787.531C363.783 798.811 305.758 788.981 268.288 766.96C233.961 746.786 206.622 715.816 196.477 676.715C185.307 668.227 174.862 659.457 165.878 648.586C135.916 612.333 126.742 569.085 131.204 523.092C127.285 517.572 123.2 512.279 119.762 506.426C106.248 483.426 99.6752 456.519 99.2541 429.955C98.6143 389.588 114.708 346.202 143.013 317.219C143.165 289.838 147.743 263.806 159.773 238.992C176.498 204.491 206.316 174.94 242.821 162.201Z"/>
	<path fill="#270939" d="M495.598 344.96C495.866 346.577 496.039 348.12 496.1 349.759C497.03 348.529 495.799 347.733 497.389 347.028C497.79 375.51 497.234 404.05 497.063 432.536L496.975 534.25L496.957 635.168C496.959 656.587 498.174 678.587 495.339 699.833C493.783 711.495 490.48 722.01 487.411 733.259L486.726 733.608C485.61 731.895 487.568 727.606 488.164 725.724C496.011 700.934 495.418 675.282 495.418 649.631L495.42 600.345L495.579 417.25Q495.347 381.104 495.598 344.96Z"/>
	<path d="M220.087 847.272C221.086 846.779 221.125 846.817 222.155 847.105C224.068 847.639 225.954 848.799 227.839 849.499C233.105 851.454 238.534 853.34 243.995 854.641C258.212 858.026 273.024 857.504 287.531 857.484L323.847 857.455C341.106 857.465 364.637 858.789 381.26 856.176C388.811 854.989 396.976 851.756 403.45 847.734C422.085 836.159 429.369 818.068 430.429 796.815C430.669 792.024 429.51 785.479 430.723 780.996C431.019 779.903 431.399 779.623 432.322 779C437.029 775.825 442.572 773.447 447.457 770.486C452.564 767.391 457.264 763.651 462.383 760.629L462.855 760.356C463.134 764.177 462.982 768.082 462.977 771.915L461.63 773.613C461.687 769.73 461.621 765.795 461.978 761.928Q458.594 764.781 454.999 767.363Q451.405 769.946 447.622 772.245Q443.839 774.543 439.89 776.542Q435.941 778.542 431.85 780.231C432.298 801.901 431.867 823.012 415.803 839.646C402.859 853.049 385.095 858.785 366.757 858.997C344.826 859.249 322.863 859.015 300.929 859.02C284.952 859.023 268.527 859.935 252.684 857.729C241.951 856.235 229.393 852.962 220.087 847.272Z"/>
	<path fill="#270939" d="M497.06 188.986C497.772 196.364 497.47 204.004 497.476 211.42L497.47 247.333L497.497 326.652C497.479 333.412 497.722 340.282 497.389 347.028C495.799 347.733 497.03 348.529 496.1 349.759C496.039 348.12 495.866 346.577 495.598 344.96C494.96 338.487 495.587 331.398 495.483 324.839L495.427 247.117C495.267 239.011 495.514 230.865 495.535 222.755C495.56 212.478 495.321 202.325 496.603 192.098L496.398 196.838C496.997 196.001 496.955 190.27 497.06 188.986Z"/>
	<path fill="#6F387A" d="M377.823 114.211C383.031 113.877 388.281 113.897 393.499 113.911C416.001 113.972 437.687 120.197 453.816 136.646C462.936 145.947 468.478 157.872 470.769 170.633C472.864 182.302 472.107 194.798 472.115 206.634L472.082 259.433C471.985 316.291 472.555 373.203 471.902 430.055C466.417 424.895 461.674 419.159 455.934 414.186C435.88 396.811 410.313 387.437 383.936 385.817C340.948 383.177 301.65 400.059 269.872 428.147C255.705 440.669 238.32 459.797 230.463 476.923C229.535 478.945 228.394 480.83 228.308 483.115C228.189 486.295 229.098 488.905 231.343 491.193Q231.853 491.705 232.413 492.164Q232.973 492.622 233.575 493.021Q234.178 493.421 234.819 493.757Q235.459 494.094 236.13 494.364Q236.801 494.634 237.495 494.835Q238.19 495.037 238.901 495.167Q239.613 495.297 240.334 495.354Q241.055 495.412 241.778 495.396C244.396 495.337 246.405 494.359 248.231 492.51C252.809 487.877 255.644 481.005 259.27 475.587C264.349 467.997 270.638 460.642 277.051 454.153C303.342 427.549 337.984 409.097 375.993 408.95C402.634 408.847 427.042 418.066 445.998 437C456.982 447.972 465.294 460.638 469.212 475.758C472.532 488.567 472.004 501.672 471.988 514.779L471.966 546.293L471.894 648.875L471.916 675.68C471.909 694.275 471.417 710.522 461.144 726.772C448.329 747.043 425.694 759.056 402.776 764.039C391.977 766.387 381.124 767.101 370.111 767.313C335.739 767.974 303.093 761.121 273.94 742.261C252.368 728.305 232.105 707.115 224.011 682.212C221.927 675.802 221.311 669.358 219.918 662.822C215.175 658.724 209.323 655.527 204.295 651.709Q201.623 649.638 199.067 647.424Q196.512 645.21 194.08 642.861Q191.649 640.511 189.349 638.033Q187.049 635.554 184.887 632.954Q182.726 630.355 180.709 627.641Q178.692 624.927 176.826 622.108Q174.959 619.289 173.249 616.372Q171.539 613.455 169.99 610.45C156.691 584.717 150.254 546.208 159.159 517.987Q158.178 516.943 157.221 515.877Q156.264 514.811 155.331 513.724Q154.398 512.637 153.489 511.529Q152.581 510.422 151.697 509.294Q150.813 508.167 149.955 507.02Q149.097 505.873 148.264 504.707Q147.432 503.541 146.625 502.357Q145.819 501.173 145.04 499.971Q144.26 498.769 143.507 497.55Q142.755 496.331 142.029 495.095Q141.304 493.86 140.607 492.609Q139.909 491.357 139.24 490.091Q138.57 488.824 137.929 487.543Q137.288 486.262 136.676 484.967Q136.064 483.672 135.481 482.363Q134.898 481.055 134.344 479.733Q133.79 478.412 133.266 477.079Q132.742 475.746 132.247 474.401Q131.753 473.057 131.289 471.701Q130.825 470.346 130.391 468.981Q129.957 467.615 129.554 466.241Q129.15 464.866 128.778 463.483Q128.405 462.099 128.064 460.708Q127.722 459.317 127.412 457.918Q127.101 456.52 126.822 455.115Q126.543 453.71 126.296 452.298Q126.048 450.888 125.832 449.471Q125.616 448.055 125.431 446.634Q125.247 445.214 125.094 443.789Q124.941 442.365 124.82 440.938Q124.699 439.51 124.61 438.08Q124.521 436.65 124.464 435.219Q124.34 432.388 124.33 429.555Q124.32 426.722 124.424 423.89Q124.527 421.059 124.743 418.234Q124.96 415.409 125.29 412.595Q125.619 409.78 126.061 406.982Q126.503 404.183 127.057 401.404Q127.61 398.626 128.275 395.871Q128.939 393.117 129.713 390.391Q130.487 387.666 131.37 384.973Q132.253 382.281 133.243 379.626Q134.232 376.971 135.328 374.358Q136.423 371.745 137.622 369.178Q138.821 366.611 140.122 364.094Q141.423 361.577 142.823 359.114Q144.224 356.651 145.722 354.246Q147.22 351.841 148.813 349.498C154.247 341.642 160.586 334.695 166.996 327.644C166.781 288.463 174.008 254.068 199.746 223.069C210.669 209.915 223.432 198.932 239.185 192.051C243.883 189.999 250.173 188.905 254.405 186.121C259.92 182.493 268.474 170.283 274.161 164.809C302.746 137.292 337.823 117.894 377.823 114.211Z"/>
	<path fill="#FEF7E2" d="M369.805 488.718C377.589 488.46 385.118 489.965 391.742 494.226C396.327 497.175 400.301 501.46 401.3 506.985C402.032 511.039 401.081 515.793 398.557 519.092C396.416 521.892 393.152 523.444 389.674 523.731C386.736 523.974 384.005 523.316 381.265 522.308C369.754 518.071 372.675 509.17 366.87 505.45C365.842 504.791 364.786 504.691 363.637 505.084C361.453 505.832 359.7 508.472 358.475 510.311C346.932 527.635 343.712 557.451 339.848 577.906Q336.717 594.816 333.072 611.622Q329.037 629.53 322.527 646.693C315.983 663.49 306.925 680.669 289.64 688.246C283.882 690.58 276.962 691.523 270.803 690.597C265.494 689.799 260.465 687.714 257.258 683.222Q256.782 682.56 256.373 681.854Q255.964 681.148 255.627 680.405Q255.289 679.663 255.027 678.89Q254.765 678.118 254.58 677.323Q254.395 676.529 254.289 675.72Q254.183 674.911 254.158 674.096Q254.133 673.28 254.188 672.466Q254.243 671.652 254.378 670.848C255.07 666.957 257.296 663.181 260.587 660.938C263.577 658.901 267.057 658.404 270.561 659.15C277.82 660.696 282.176 665.853 285.861 671.832C292.491 665.228 296.105 655.784 299.126 647.099C305.181 629.685 308.65 611.361 312.147 593.294C317.331 566.513 322.616 525.289 340.069 504.032C347.888 494.508 357.696 489.888 369.805 488.718Z"/>
	<path fill="#4D2161" d="M380.848 230.195C383.747 229.5 387.36 229.895 390.327 229.993C390.482 230.082 390.638 230.169 390.792 230.26L391.559 230.722C393.583 231.931 395.393 233.245 396.794 235.183C398.506 237.553 398.834 240.412 398.387 243.244C397.757 247.235 395.418 250.17 391.814 251.924C385.141 255.172 375.68 254.971 368.374 256.547Q359.897 258.402 351.652 261.107Q343.408 263.813 335.48 267.341C311.668 277.829 288.198 294.476 272.225 315.157C267.873 320.791 264.63 329.638 258.87 333.675C257.76 334.019 256.635 334.4 255.487 334.598Q254.916 334.692 254.339 334.728Q253.762 334.764 253.184 334.743Q252.606 334.721 252.033 334.642Q251.46 334.563 250.898 334.427Q250.336 334.291 249.79 334.1Q249.244 333.908 248.72 333.663Q248.196 333.418 247.7 333.122Q247.203 332.826 246.738 332.482C243.968 330.405 241.924 327.398 241.456 323.926C240.327 315.541 248.296 306.737 253.171 300.58C283.437 262.36 332.546 235.846 380.848 230.195Z"/>
	<path fill="#F39215" d="M847.22 788.495C844.929 777.727 845.354 767.248 851.587 757.805Q852.049 757.11 852.544 756.438Q853.04 755.766 853.568 755.12Q854.097 754.474 854.657 753.855Q855.217 753.236 855.807 752.645Q856.397 752.055 857.015 751.494Q857.634 750.934 858.28 750.405Q858.925 749.876 859.596 749.379Q860.268 748.883 860.963 748.421Q861.658 747.958 862.375 747.531Q863.092 747.104 863.829 746.713Q864.567 746.322 865.323 745.968Q866.079 745.614 866.851 745.298Q867.624 744.982 868.411 744.705Q869.199 744.428 869.999 744.19Q870.799 743.952 871.61 743.755Q872.421 743.557 873.241 743.4C882.278 741.663 891.465 743.968 898.966 749.176C906.184 754.188 911.325 761.586 912.883 770.294C914.583 779.796 912.834 789.451 907.199 797.366Q906.704 798.048 906.177 798.704Q905.649 799.361 905.09 799.991Q904.531 800.62 903.942 801.222Q903.353 801.824 902.734 802.396Q902.116 802.968 901.471 803.508Q900.825 804.049 900.154 804.558Q899.483 805.067 898.787 805.542Q898.092 806.017 897.374 806.457Q896.656 806.897 895.918 807.302Q895.179 807.706 894.421 808.074Q893.664 808.442 892.889 808.772Q892.114 809.102 891.324 809.394Q890.534 809.685 889.73 809.938Q888.927 810.191 888.112 810.403Q887.297 810.616 886.473 810.789Q885.649 810.961 884.817 811.093C877.159 812.373 869.713 810.624 862.808 807.248C855.506 801.679 851.057 796.889 847.22 788.495Z"/>
	<path fill="#F39215" d="M818.558 910.723C818.605 901.049 821.653 892.232 828.639 885.35C834.948 879.136 843.2 875.923 852.051 876.087C860.979 876.253 870.143 880.162 876.354 886.602C882.407 892.878 885.267 901.612 885.072 910.234C884.866 919.365 881.4 927.963 874.739 934.302C868.025 940.692 859.064 943.835 849.854 943.575C841.79 943.347 833.611 939.63 828.109 933.691C827.949 933.518 827.794 933.341 827.637 933.165C822.086 925.992 819.59 919.703 818.558 910.723Z"/>
	<path fill="#F39215" d="M136.717 769.248Q136.065 769.557 135.4 769.838Q134.735 770.118 134.059 770.37Q133.382 770.621 132.696 770.844Q132.009 771.066 131.314 771.258Q130.618 771.451 129.915 771.613Q129.212 771.775 128.502 771.907Q127.793 772.039 127.078 772.14Q126.363 772.241 125.645 772.312Q124.927 772.382 124.206 772.421Q123.486 772.46 122.764 772.468Q122.042 772.476 121.321 772.453Q120.6 772.43 119.88 772.376Q119.161 772.322 118.444 772.237Q117.727 772.152 117.015 772.036Q116.303 771.92 115.596 771.774Q114.889 771.627 114.19 771.451Q113.49 771.274 112.799 771.067Q112.107 770.86 111.425 770.624Q110.743 770.387 110.072 770.122Q109.401 769.856 108.742 769.562Q108.084 769.268 107.438 768.945Q106.792 768.623 106.161 768.273Q105.53 767.923 104.914 767.546Q104.299 767.169 103.7 766.766Q103.102 766.363 102.521 765.935Q101.94 765.507 101.378 765.053Q100.817 764.6 100.275 764.124Q99.7333 763.647 99.2127 763.147Q98.692 762.647 98.1935 762.125Q97.6949 761.604 97.2192 761.061Q96.7436 760.518 96.2918 759.955Q95.84 759.393 95.4129 758.811Q94.9858 758.229 94.5841 757.63Q94.1825 757.03 93.807 756.414Q93.4316 755.797 93.0831 755.165Q92.7346 754.533 92.4137 753.887Q92.0927 753.241 91.7999 752.581Q91.5072 751.921 91.2431 751.25Q90.979 750.578 90.7442 749.896Q90.5093 749.213 90.3041 748.521Q90.0988 747.829 89.9236 747.129Q89.7484 746.429 89.6035 745.722Q89.4587 745.015 89.3444 744.303Q89.2302 743.59 89.1467 742.873Q89.0633 742.156 89.0109 741.437Q88.9584 740.717 88.937 739.995Q88.9157 739.274 88.9254 738.552Q88.9352 737.831 88.976 737.11Q89.0169 736.39 89.0888 735.672Q89.1606 734.953 89.2634 734.239Q89.3661 733.525 89.4996 732.816Q89.6331 732.106 89.797 731.403Q89.9609 730.701 90.155 730.005Q90.349 729.31 90.5729 728.624Q90.7967 727.938 91.0499 727.262Q91.3031 726.587 91.5853 725.922Q91.8674 725.258 92.1779 724.607Q92.4883 723.955 92.8266 723.318Q93.1649 722.68 93.5304 722.058Q93.8958 721.435 94.2878 720.829Q94.6797 720.223 95.0974 719.635Q95.5151 719.046 95.9578 718.476Q96.4005 717.906 96.8673 717.356Q97.3342 716.806 97.8243 716.276Q98.3144 715.746 98.8269 715.238Q99.3395 714.73 99.8734 714.245Q100.407 713.759 100.962 713.297Q101.516 712.835 102.09 712.397Q102.664 711.959 103.256 711.547Q103.848 711.134 104.457 710.748Q105.067 710.361 105.692 710.001Q106.317 709.641 106.958 709.308Q107.598 708.975 108.252 708.67Q108.906 708.366 109.573 708.089Q110.24 707.813 110.918 707.565Q111.596 707.318 112.284 707.1Q112.972 706.882 113.669 706.694Q114.365 706.506 115.07 706.348Q115.774 706.19 116.484 706.063Q117.194 705.936 117.91 705.839Q118.625 705.743 119.344 705.677Q120.062 705.611 120.783 705.577Q121.504 705.542 122.226 705.539Q122.947 705.535 123.668 705.563Q124.39 705.59 125.109 705.649Q125.828 705.708 126.544 705.797Q127.26 705.887 127.972 706.007Q128.684 706.128 129.389 706.278Q130.095 706.429 130.794 706.611Q131.492 706.792 132.182 707.003Q132.872 707.214 133.553 707.455Q134.233 707.696 134.902 707.966Q135.572 708.235 136.229 708.534Q136.886 708.832 137.529 709.159Q138.173 709.485 138.802 709.839Q139.431 710.193 140.044 710.574Q140.657 710.955 141.253 711.362Q141.849 711.768 142.427 712.2Q143.005 712.633 143.564 713.089Q144.123 713.546 144.662 714.026Q145.2 714.506 145.718 715.01Q146.235 715.513 146.73 716.038Q147.226 716.562 147.698 717.108Q148.17 717.654 148.618 718.22Q149.066 718.785 149.49 719.37Q149.913 719.954 150.311 720.556Q150.709 721.158 151.08 721.777Q151.452 722.396 151.796 723.03Q152.141 723.664 152.458 724.313Q152.774 724.961 153.063 725.622Q153.352 726.284 153.611 726.957Q153.871 727.63 154.102 728.314Q154.332 728.998 154.533 729.691Q154.734 730.385 154.905 731.086Q155.075 731.787 155.216 732.495Q155.356 733.203 155.466 733.916Q155.575 734.629 155.654 735.347Q155.733 736.064 155.781 736.784Q155.829 737.504 155.846 738.226Q155.863 738.947 155.848 739.669Q155.834 740.39 155.788 741.111Q155.743 741.831 155.667 742.549Q155.59 743.266 155.483 743.98Q155.376 744.694 155.238 745.402Q155.1 746.11 154.931 746.812Q154.763 747.514 154.564 748.208Q154.366 748.901 154.138 749.586Q153.91 750.271 153.652 750.945Q153.367 751.691 153.047 752.423Q152.727 753.155 152.372 753.87Q152.017 754.586 151.629 755.283Q151.24 755.981 150.819 756.66Q150.397 757.338 149.944 757.996Q149.491 758.653 149.007 759.289Q148.523 759.924 148.009 760.535Q147.495 761.147 146.953 761.733Q146.41 762.319 145.841 762.879Q145.271 763.438 144.675 763.97Q144.079 764.502 143.459 765.005Q142.838 765.508 142.195 765.98Q141.551 766.453 140.885 766.894Q140.22 767.336 139.534 767.745Q138.848 768.154 138.143 768.53Q137.439 768.906 136.717 769.248Z"/>
	<path fill="#F39215" d="M179.509 917.808Q178.909 918.192 178.293 918.551Q177.677 918.909 177.046 919.24Q176.416 919.572 175.771 919.876Q175.126 920.179 174.469 920.455Q173.812 920.731 173.144 920.978Q172.476 921.226 171.798 921.444Q171.119 921.662 170.432 921.851Q169.745 922.04 169.05 922.199Q168.356 922.358 167.655 922.487Q166.954 922.616 166.248 922.714Q165.543 922.813 164.833 922.881Q164.124 922.949 163.413 922.986Q162.701 923.024 161.988 923.031Q161.276 923.037 160.564 923.013Q159.852 922.989 159.141 922.935Q158.431 922.88 157.723 922.795Q157.016 922.71 156.313 922.594Q155.61 922.478 154.912 922.332Q154.215 922.187 153.524 922.011Q152.833 921.835 152.151 921.63Q151.469 921.424 150.796 921.19Q150.123 920.955 149.461 920.692Q148.799 920.428 148.149 920.137Q147.499 919.845 146.862 919.526Q146.225 919.206 145.602 918.86Q144.979 918.513 144.372 918.14Q143.765 917.767 143.175 917.368Q142.584 916.969 142.012 916.545Q141.439 916.121 140.885 915.673Q140.331 915.225 139.797 914.753Q139.263 914.281 138.75 913.787Q138.236 913.293 137.745 912.777Q137.254 912.261 136.785 911.724Q136.316 911.188 135.871 910.631Q135.426 910.075 135.005 909.5Q134.584 908.925 134.188 908.332Q133.793 907.74 133.423 907.13Q133.053 906.521 132.71 905.897Q132.367 905.272 132.051 904.634Q131.735 903.995 131.447 903.343Q131.159 902.691 130.899 902.028Q130.639 901.364 130.409 900.69Q130.178 900.016 129.976 899.332Q129.775 898.649 129.603 897.957Q129.431 897.266 129.289 896.568Q129.147 895.869 129.035 895.165Q128.923 894.462 128.842 893.754Q128.761 893.046 128.71 892.335Q128.659 891.624 128.639 890.912Q128.619 890.2 128.63 889.487Q128.64 888.775 128.682 888.063Q128.723 887.352 128.795 886.643Q128.867 885.934 128.969 885.229Q129.072 884.524 129.205 883.824Q129.338 883.124 129.5 882.43Q129.663 881.736 129.856 881.05Q130.048 880.364 130.27 879.687Q130.492 879.01 130.743 878.343Q130.994 877.676 131.274 877.02Q131.553 876.365 131.861 875.722Q132.168 875.079 132.503 874.45Q132.838 873.821 133.199 873.207Q133.561 872.593 133.949 871.995Q134.337 871.398 134.75 870.817Q135.163 870.237 135.601 869.674Q136.039 869.112 136.501 868.569Q136.962 868.027 137.447 867.504Q137.932 866.982 138.438 866.481Q138.945 865.98 139.473 865.501Q140.001 865.022 140.549 864.567Q141.097 864.111 141.664 863.68Q142.231 863.248 142.816 862.842Q143.401 862.435 144.003 862.054Q144.605 861.673 145.223 861.318Q145.841 860.964 146.474 860.636Q147.107 860.308 147.753 860.008Q148.399 859.708 149.058 859.436Q149.717 859.164 150.386 858.92Q151.056 858.677 151.736 858.462Q152.415 858.248 153.103 858.063Q153.792 857.879 154.487 857.724Q155.183 857.569 155.884 857.444Q156.586 857.319 157.292 857.224Q157.998 857.13 158.708 857.066Q159.418 857.002 160.13 856.968Q160.841 856.935 161.554 856.932Q162.267 856.93 162.979 856.958Q163.691 856.986 164.401 857.045Q165.111 857.104 165.818 857.193Q166.525 857.282 167.227 857.402Q167.93 857.522 168.626 857.671Q169.323 857.821 170.013 858.001Q170.702 858.181 171.383 858.39Q172.064 858.599 172.736 858.838Q173.407 859.076 174.068 859.344Q174.729 859.611 175.377 859.906Q176.025 860.201 176.661 860.524Q177.296 860.847 177.916 861.198Q178.537 861.548 179.142 861.924Q179.747 862.301 180.335 862.703Q180.923 863.105 181.493 863.533Q182.064 863.96 182.615 864.411Q183.166 864.863 183.698 865.337Q184.229 865.812 184.739 866.31Q185.25 866.807 185.738 867.326Q186.227 867.844 186.692 868.384Q187.158 868.923 187.6 869.482Q188.042 870.041 188.459 870.618Q188.877 871.196 189.269 871.791Q189.661 872.385 190.028 872.997Q190.394 873.608 190.733 874.235Q191.073 874.861 191.385 875.502Q191.697 876.142 191.982 876.795Q192.266 877.449 192.522 878.114Q192.778 878.779 193.005 879.454Q193.232 880.13 193.429 880.814Q193.627 881.499 193.795 882.191Q193.963 882.884 194.101 883.583Q194.239 884.282 194.347 884.987Q194.454 885.691 194.531 886.399Q194.609 887.108 194.655 887.819Q194.702 888.53 194.718 889.242Q194.734 889.954 194.719 890.667Q194.704 891.379 194.659 892.09Q194.614 892.801 194.537 893.51Q194.461 894.218 194.355 894.923Q194.248 895.628 194.112 896.327Q193.975 897.026 193.808 897.719Q193.623 898.487 193.402 899.245Q193.18 900.003 192.923 900.75Q192.666 901.497 192.373 902.23Q192.08 902.964 191.753 903.683Q191.425 904.401 191.064 905.104Q190.703 905.806 190.308 906.49Q189.914 907.174 189.487 907.839Q189.06 908.504 188.602 909.147Q188.144 909.791 187.656 910.411Q187.168 911.032 186.65 911.629Q186.133 912.226 185.588 912.797Q185.043 913.369 184.471 913.913Q183.899 914.458 183.302 914.975Q182.704 915.492 182.083 915.979Q181.462 916.467 180.818 916.924Q180.174 917.382 179.509 917.808Z"/>
</svg>
